<svg xmlns="http://www.w3.org/2000/svg" width="900" height="383" viewBox="0 0 900 383">
<defs><linearGradient id="bg" x1="0" y1="0" x2="1" y2="1"><stop stop-color="#0a0a1e"/><stop offset="1" stop-color="#161638"/></linearGradient><linearGradient id="accent" x1="0" x2="1"><stop stop-color="#38bdf8"/><stop offset=".5" stop-color="#a78bfa"/><stop offset="1" stop-color="#f59e0b"/></linearGradient><pattern id="grid" width="36" height="36" patternUnits="userSpaceOnUse"><path d="M36 0H0V36" fill="none" stroke="#475569" stroke-opacity=".22"/></pattern></defs>
<rect width="900" height="383" fill="url(#bg)"/><rect width="900" height="383" fill="url(#grid)"/><rect width="300" height="4" fill="#38bdf8"/><rect x="300" width="300" height="4" fill="#a78bfa"/><rect x="600" width="300" height="4" fill="#f59e0b"/><rect y="379" width="300" height="4" fill="#22c55e"/><rect x="300" y="379" width="300" height="4" fill="#38bdf8"/><rect x="600" y="379" width="300" height="4" fill="#a78bfa"/>
<rect x="42" y="35" width="278" height="32" rx="6" fill="#172554" stroke="#38bdf8"/><text x="58" y="57" fill="#bae6fd" font-family="Microsoft YaHei, sans-serif" font-size="13" font-weight="700">AI 行业观察 · 模型能力评测</text><rect x="813" y="31" width="46" height="46" rx="23" fill="#201c4b" stroke="#a78bfa" stroke-width="2"/><text x="836" y="62" text-anchor="middle" fill="#ddd6fe" font-family="Arial, sans-serif" font-size="25" font-weight="700">26</text>
<text x="42" y="119" fill="#fff" font-family="Microsoft YaHei, sans-serif" font-size="30" font-weight="700">大模型评测全指南</text><text x="42" y="151" fill="url(#accent)" font-family="Microsoft YaHei, sans-serif" font-size="18" font-weight="700">从 MMLU、SWE-bench 到 Arena，读懂分数与真实能力</text>
<circle cx="57" cy="188" r="4" fill="#38bdf8"/><text x="72" y="193" fill="#cbd5e1" font-family="Microsoft YaHei, sans-serif" font-size="13">知识、推理、代码、Agent：不同任务必须用不同尺子</text><circle cx="57" cy="215" r="4" fill="#a78bfa"/><text x="72" y="220" fill="#cbd5e1" font-family="Microsoft YaHei, sans-serif" font-size="13">排名要看版本、提示词、工具、预算与置信区间</text><circle cx="57" cy="242" r="4" fill="#f59e0b"/><text x="72" y="247" fill="#cbd5e1" font-family="Microsoft YaHei, sans-serif" font-size="13">真正的选型答案，藏在你的业务黄金集里</text>
<g font-family="Microsoft YaHei, sans-serif" font-size="11" font-weight="700"><rect x="42" y="282" width="70" height="25" rx="12" fill="#172554" stroke="#38bdf8"/><text x="77" y="299" text-anchor="middle" fill="#bae6fd">MMLU</text><rect x="121" y="282" width="96" height="25" rx="12" fill="#261946" stroke="#a78bfa"/><text x="169" y="299" text-anchor="middle" fill="#ddd6fe">SWE-bench</text><rect x="226" y="282" width="70" height="25" rx="12" fill="#3b2408" stroke="#f59e0b"/><text x="261" y="299" text-anchor="middle" fill="#fde68a">Arena</text><rect x="305" y="282" width="57" height="25" rx="12" fill="#073227" stroke="#22c55e"/><text x="334" y="299" text-anchor="middle" fill="#bbf7d0">HLE</text></g>
<g transform="translate(590 110)" stroke-linecap="round"><path d="M42 121H238M42 121V15" stroke="#64748b" stroke-width="2"/><path d="M65 106L105 73 148 89 198 35" fill="none" stroke="#38bdf8" stroke-width="4"/><circle cx="65" cy="106" r="7" fill="#0a0a1e" stroke="#38bdf8" stroke-width="3"/><circle cx="105" cy="73" r="7" fill="#0a0a1e" stroke="#a78bfa" stroke-width="3"/><circle cx="148" cy="89" r="7" fill="#0a0a1e" stroke="#f59e0b" stroke-width="3"/><circle cx="198" cy="35" r="7" fill="#0a0a1e" stroke="#22c55e" stroke-width="3"/><text x="35" y="151" fill="#94a3b8" stroke="none" font-family="Arial" font-size="10">BENCHMARK ≠ BUSINESS VALUE</text></g>
<path d="M42 334H858" stroke="#475569"/><text x="42" y="359" fill="#94a3b8" font-family="Microsoft YaHei, sans-serif" font-size="11">能力基准 · 人类偏好 · Agent 成功率 · 生产性价比</text><text x="858" y="359" text-anchor="end" fill="#64748b" font-family="Microsoft YaHei, sans-serif" font-size="11">AI INSIGHT</text>
</svg>